<svg xmlns="http://www.w3.org/2000/svg" viewBox="0 0 980 620" role="img" aria-labelledby="title desc">
  <title id="title">DicTide Interface Preview</title>
  <desc id="desc">Stylized preview image of the DicTide desktop app layout.</desc>
  <defs>
    <linearGradient id="bg" x1="0" y1="0" x2="1" y2="1">
      <stop offset="0%" stop-color="#121f4a"/>
      <stop offset="100%" stop-color="#18275f"/>
    </linearGradient>
    <linearGradient id="head" x1="0" y1="0" x2="1" y2="0">
      <stop offset="0%" stop-color="#5fc6ff"/>
      <stop offset="100%" stop-color="#7f7dff"/>
    </linearGradient>
    <linearGradient id="btn" x1="0" y1="0" x2="1" y2="0">
      <stop offset="0%" stop-color="#4fdbdd"/>
      <stop offset="100%" stop-color="#6fa0ff"/>
    </linearGradient>
  </defs>
  <rect x="0" y="0" width="980" height="620" rx="22" fill="url(#bg)"/>
  <rect x="22" y="22" width="936" height="64" rx="12" fill="#0d173a" stroke="#324a8f"/>
  <circle cx="58" cy="54" r="9" fill="#ff6f9f"/>
  <circle cx="84" cy="54" r="9" fill="#ffd86f"/>
  <circle cx="110" cy="54" r="9" fill="#68ffcb"/>
  <rect x="146" y="39" width="266" height="30" rx="8" fill="url(#head)" opacity="0.96"/>
  <text x="160" y="59" fill="#0d1231" font-family="Segoe UI, Arial" font-size="17" font-weight="700">DicTide</text>

  <rect x="22" y="104" width="670" height="494" rx="14" fill="#0d183d" stroke="#2f4a90"/>
  <rect x="714" y="104" width="244" height="494" rx="14" fill="#0f1a42" stroke="#2f4a90"/>

  <rect x="44" y="126" width="168" height="32" rx="8" fill="#1e2e64"/>
  <rect x="224" y="126" width="120" height="32" rx="8" fill="url(#btn)"/>
  <rect x="356" y="126" width="120" height="32" rx="8" fill="#2a3f83"/>
  <rect x="488" y="126" width="120" height="32" rx="8" fill="#2a3f83"/>

  <rect x="44" y="176" width="624" height="34" rx="8" fill="#1a2a5d"/>
  <rect x="44" y="224" width="624" height="18" rx="8" fill="#233b7a"/>
  <rect x="44" y="252" width="410" height="11" rx="6" fill="#3f67c8"/>

  <rect x="44" y="284" width="624" height="224" rx="10" fill="#132453"/>
  <rect x="58" y="300" width="592" height="192" rx="8" fill="#0d1d46"/>

  <rect x="44" y="520" width="200" height="28" rx="8" fill="#2a3f83"/>

  <rect x="734" y="126" width="206" height="30" rx="8" fill="#1b2d62"/>
  <rect x="734" y="166" width="206" height="92" rx="10" fill="#132453"/>
  <rect x="734" y="270" width="206" height="128" rx="10" fill="#132453"/>
  <rect x="748" y="286" width="178" height="18" rx="8" fill="#2d4f9c"/>
  <rect x="748" y="314" width="178" height="12" rx="6" fill="#496fc7"/>
  <rect x="748" y="338" width="164" height="12" rx="6" fill="#496fc7"/>
  <rect x="734" y="410" width="206" height="30" rx="8" fill="url(#btn)"/>
  <rect x="734" y="450" width="206" height="30" rx="8" fill="#2a3f83"/>
  <rect x="734" y="490" width="206" height="30" rx="8" fill="#2a3f83"/>
</svg>
